<svg width="42" height="29" fill="none" xmlns="http://www.w3.org/2000/svg"><path d="M42 0H0v24l21 5 21-5V0z" fill="#EB7D3F"/><path d="M5.86 17.156c1.703 0 2.743-.624 3.692-1.612l-1.027-1.04c-.78.728-1.495 1.183-2.613 1.183-1.742 0-3.003-1.456-3.003-3.237 0-1.807 1.261-3.237 3.003-3.237 1.04 0 1.82.455 2.548 1.131l1.027-1.183c-.87-.832-1.885-1.417-3.562-1.417-2.756 0-4.693 2.119-4.693 4.706 0 2.639 1.976 4.706 4.628 4.706zM9.426 17h1.56v-1.651l1.118-1.183L14.184 17h1.859l-2.886-3.978 2.665-2.886h-1.846l-2.99 3.289v-3.289h-1.56V17zm6.081 0h1.482l3.263-4.576V17h1.521v-6.864h-1.482c-1.092 1.534-2.171 3.068-3.25 4.602v-4.602h-1.534V17zm5.821 1.651h1.313L22.797 17h4.81v1.651h1.313l.208-3.003h-.975v-5.512h-5.317v.845c0 1.924-.195 3.523-.767 4.667h-.74v3.003zm2.353-3.003c.403-.845.637-2.002.637-3.25v-.91h2.262v4.16h-2.899zM28.811 17h1.56v-1.651l1.119-1.183L33.57 17h1.859l-2.886-3.978 2.665-2.886h-1.846l-2.99 3.289v-3.289h-1.56V17zm11.84 0v-4.069c0-1.833-.987-2.899-3.015-2.899-1.118 0-1.86.234-2.613.572l.429 1.261c.624-.26 1.196-.429 1.963-.429 1.092 0 1.69.52 1.69 1.469v.13a5.778 5.778 0 00-1.898-.286c-1.6 0-2.782.728-2.782 2.249 0 1.404 1.144 2.145 2.444 2.145 1.04 0 1.755-.429 2.223-.988V17h1.56zm-1.52-2.483c0 .858-.78 1.443-1.82 1.443-.741 0-1.326-.364-1.326-1.014 0-.689.585-1.092 1.573-1.092.61 0 1.17.117 1.573.273v.39z" fill="#fff"/></svg>