<svg width="42" height="29" fill="none" xmlns="http://www.w3.org/2000/svg"><path d="M42 0H0v24l21 5 21-5V0z" fill="#53BADA"/><path d="M8.178 17V7.9H9.66l4.875 6.292V7.9h1.573V17H14.77l-5.018-6.474V17H8.178zm13.235.156c-1.006 0-1.846-.334-2.522-1.001-.667-.667-1.001-1.53-1.001-2.587 0-.997.316-1.842.949-2.535.633-.693 1.434-1.04 2.405-1.04 1.04 0 1.846.355 2.418 1.066.58.702.87 1.577.87 2.626 0 .19-.008.338-.025.442h-5.044c.086.546.307.975.663 1.287.355.303.793.455 1.313.455.676 0 1.296-.273 1.859-.819l.923.819c-.71.858-1.647 1.287-2.808 1.287zm-1.963-4.069h3.523c-.052-.529-.23-.962-.533-1.3-.303-.338-.707-.507-1.21-.507a1.58 1.58 0 00-1.195.507c-.32.33-.516.763-.585 1.3zm7.983 3.965l-2.223-6.916h1.612l1.378 4.706 1.521-4.732h1.34l1.533 4.732 1.404-4.706h1.573l-2.249 6.916h-1.404l-1.534-4.693-1.547 4.693h-1.404z" fill="#fff"/></svg>