<svg width="182" height="179" fill="none" xmlns="http://www.w3.org/2000/svg"><path fill-rule="evenodd" clip-rule="evenodd" d="M104.064 9.586H75.157L65.522 0l-8.993 9.586h-13.49v13.422L22.483 42.82H8.993v13.42L0 65.189l9.636 9.587v28.759L0 112.482l9.636 9.586v13.421h13.49L43.68 155.94v13.421h13.49l9.636 9.587 9.635-9.587h28.907l9.635 9.587 9.636-9.587h13.49V155.94l20.556-20.451h13.489v-13.421l9.636-9.586-9.636-9.587v-28.76l9.636-9.586-9.636-9.586V42.82h-13.489L138.11 22.369V9.586h-13.49L113.057 0l-8.993 9.586zm3.854 8.948l5.139-5.752 5.782 5.752h7.708v7.67l25.695 25.563h8.351v7.67l5.781 5.751-5.781 5.752v36.429l5.781 5.752-5.781 5.112v7.67h-7.709l-25.695 25.564v7.669h-7.708l-5.781 5.752-5.782-5.113H71.303l-5.781 5.752-5.14-5.752h-8.35v-7.669l-25.695-25.564H18.63v-7.669l-5.782-6.391 5.782-5.752V70.301l-5.782-5.113 5.782-5.752v-7.669h7.708l25.695-25.564v-7.67h7.709l5.78-5.751 5.782 5.752h36.615zm-36.615 6.39V29.4c0 2.556 0 4.473-.642 7.03 0 1.278-.643 3.195-1.285 4.473-.642 3.196-1.927 5.752-3.212 8.309-.642 1.278-1.927 2.556-2.57 3.834-2.569 3.835-6.423 7.03-10.277 10.226 1.285 2.556 2.57 5.752 3.854 8.308 5.781-3.834 10.92-8.947 14.774-14.7.643-1.277 1.928-2.555 2.57-3.834 1.285-2.556 2.57-5.752 3.212-8.308.642-1.278.642-3.196 1.285-4.474.642-1.917.642-3.834.642-6.39h19.271c0 1.917.642 3.834.642 6.39 3.212-.639 5.782-1.917 8.351-3.834-.642-2.557-.642-4.474-.642-7.03v-4.474H71.303zm47.536 8.948c-1.285 1.918-3.212 3.196-5.139 4.474-1.285.64-2.57 1.917-3.855 2.556-2.569 1.279-5.139 2.557-8.35 3.196-1.285.639-3.212.639-4.497 1.278-2.57.64-4.497.64-7.066.64-2.57 0-5.14 0-7.066-.64-.643 3.196-1.927 5.752-3.212 8.308 3.212.64 7.066 1.279 10.278 1.279 3.854 0 7.066-.64 10.278-1.279 1.285-.639 3.212-.639 4.496-1.278 2.57-.639 5.782-1.917 8.351-3.195 1.285-.64 2.57-1.279 3.854-2.557 1.928-.639 3.855-1.917 5.139-3.195l13.49 13.42c-1.285 1.918-2.569 3.196-3.854 5.114 2.569 1.278 5.781 2.556 8.351 3.195 1.285-1.917 2.569-3.834 4.496-5.113l3.212-3.195-25.695-25.564-3.211 2.556zM30.834 56.88l3.212 3.195c1.927 1.279 3.212 3.196 4.496 5.113.643 1.278 1.927 2.557 2.57 3.835 1.285 2.556 2.57 5.113 3.212 8.308.642 1.278.642 3.196 1.284 4.474.643 2.556.643 4.473.643 7.03 0 2.556 0 5.113-.643 7.03 3.212.64 5.782 1.917 8.351 3.196.642-3.196 1.285-7.03 1.285-10.226 0-3.835-.642-7.03-1.285-10.226-.642-1.278-.642-3.195-1.285-4.473-.642-2.557-1.927-5.752-3.212-8.309-.642-1.278-1.284-2.556-2.569-3.834-.642-1.918-1.927-3.835-3.212-5.113l13.49-13.421c1.285 1.278 3.212 2.556 5.139 3.834 1.285-2.556 2.57-5.752 3.212-8.308-1.927-1.917-3.854-3.195-5.14-5.113l-3.211-3.195L30.834 56.88zm76.442 0c3.854 5.752 8.993 10.865 14.774 14.7 1.285.638 2.57 1.916 3.855 2.556 2.569 1.278 5.139 2.556 8.35 3.195 1.285.64 3.212.64 4.497 1.278 1.927.64 3.854.64 6.424.64V98.42c-1.927 0-3.854.64-6.424.64.642 3.195 1.927 5.751 3.854 8.308 2.57-.639 4.497-.639 7.066-.639h4.497V70.301h-4.497c-2.569 0-4.496 0-7.066-.64-1.284 0-3.212-.638-4.496-1.277-3.212-.64-5.782-1.918-8.351-3.196-1.285-.639-2.57-1.278-3.854-2.556-3.855-2.557-7.066-6.391-10.278-10.226-2.57 2.557-5.782 3.196-8.351 4.474zM75.8 66.466v46.016h8.993v-14.06h7.066c8.993 0 16.059-7.03 16.059-15.978s-7.066-15.978-16.059-15.978h-16.06zm8.993 8.948h7.066c3.854 0 7.066 3.195 7.066 7.03 0 3.834-3.212 7.03-7.066 7.03h-7.066v-14.06zM29.549 70.94h-4.497v36.429h4.497c2.57 0 4.497 0 7.066.639 1.285 0 3.212.639 4.497 1.278 3.212.639 5.781 1.917 8.35 3.196 1.285.639 2.57 1.278 3.855 2.556 3.854 2.556 7.066 6.391 10.278 10.226 2.57-1.279 5.781-2.557 8.35-3.835-3.854-5.752-8.993-10.865-14.774-14.699-1.285-.639-2.57-1.918-3.854-2.557-2.57-1.278-5.14-2.556-8.351-3.195-1.285-.639-3.212-.639-4.497-1.278-1.927-.64-3.854-.64-6.423-.64V79.889c1.927 0 3.854-.64 6.423-.64-.642-3.195-1.927-5.752-3.854-8.308H29.55zM124.62 99.7c.642 1.278.642 3.195 1.285 4.473.642 2.557 1.927 5.752 3.211 8.309.643 1.278 1.285 2.556 2.57 3.834 1.285 1.917 2.569 3.196 3.854 5.113l-13.49 13.421c-1.927-1.278-3.211-2.556-5.139-3.835-1.284 2.557-2.569 5.752-3.211 8.309 1.927 1.278 3.854 2.556 5.139 4.473l3.211 3.196 25.695-25.564-3.212-3.196c-1.927-1.917-3.211-3.195-4.496-5.112-.643-1.279-1.927-2.557-2.57-3.835-1.284-2.556-2.569-5.752-3.212-8.308-.642-1.278-.642-3.196-1.284-4.474-.643-4.474-.643-9.586 0-14.06-3.212-.64-5.782-1.917-8.351-3.196-1.285 6.391-1.285 13.421 0 20.452zm-17.344 21.729c-.642 1.278-1.927 2.556-2.57 3.835-1.284 2.556-2.569 5.112-3.211 8.308-.643 1.278-.643 3.195-1.285 4.474-.643 1.917-.643 3.834-.643 6.391h-19.27c0-1.918-.643-3.835-.643-6.391-3.212.639-5.781 1.917-8.35 3.834.641 2.557.641 4.474.641 7.03v4.474h36.616v-4.474c0-2.556 0-4.473.642-7.03 0-1.278.642-3.195 1.285-4.474.642-3.195 1.927-5.751 3.212-8.308.642-1.278 1.284-2.556 2.569-3.834 2.57-3.835 6.424-7.031 10.278-10.226-1.285-2.556-2.569-5.752-3.854-8.308-6.424 3.834-11.563 8.947-15.417 14.699zm-73.23-3.196l-3.212 3.196 25.695 25.564 3.211-3.196c1.928-1.917 3.212-3.195 5.14-4.473 1.284-.639 2.569-1.918 3.854-2.557 2.57-1.278 5.139-2.556 8.35-3.195 1.285-.639 3.212-.639 4.497-1.278 2.57-.639 4.497-.639 7.066-.639 2.57 0 5.14 0 7.066.639.643-3.196 1.927-5.752 3.212-8.309-3.212-.639-7.066-1.278-10.278-1.278-3.854 0-7.066.639-10.278 1.278-1.284 0-3.212.639-4.496 1.279-2.57.639-5.782 1.917-8.351 3.195-1.285.639-2.57 1.278-3.854 2.556-1.928 1.279-3.212 2.557-5.14 3.835l-12.847-13.421c1.285-1.278 2.57-3.196 3.854-5.113-3.211-1.278-5.78-2.556-8.993-3.195-1.285 1.917-2.57 3.834-4.496 5.112z" fill="url(#paint0_linear_1017_1496)"/><defs><linearGradient id="paint0_linear_1017_1496" x1="128.182" y1="12.017" x2="59.434" y2="179.332" gradientUnits="userSpaceOnUse"><stop stop-color="#D79F43"/><stop offset="1" stop-color="#C26D30"/></linearGradient></defs></svg>