<svg width="215" height="54" fill="none" xmlns="http://www.w3.org/2000/svg"><g clip-path="url(#clip0_1017_757)"><path d="M80.814 24.105c0 3.652-2.96 6.086-6.788 6.086h-2.437v5.39h-4.525V18.02h6.962c3.829 0 6.788 2.26 6.788 6.084zm-9.225-2.086v4.173h2.437c1.218 0 2.088-.87 2.088-2.087s-.87-2.086-2.088-2.086h-2.437zm28.369.174H92.3v2.434h5.57v3.825H92.3v2.956h8.006v4.172h-12.53V18.02h12.182v4.173zm24.192.174l-3.481 2.434c-1.044-1.739-2.437-2.956-4.525-2.956-2.785 0-4.873 1.913-4.873 4.869 0 2.955 1.914 4.868 4.873 4.868 2.088 0 3.481-1.044 4.525-2.956l3.481 2.434c-1.567 2.956-4.525 4.694-8.006 4.694-5.221 0-9.398-3.998-9.398-9.04 0-5.216 4.177-9.041 9.572-9.041 3.307 0 6.265 1.738 7.832 4.694zm22.799 13.213h-4.525v-6.954h-6.439v6.954h-4.525V18.02h4.525v6.433h6.439V18.02h4.525v17.56zm26.455-8.693c0 5.215-4.177 9.04-9.572 9.04-5.221 0-9.398-3.825-9.398-9.04 0-5.216 4.177-9.041 9.398-9.041 5.395-.174 9.572 3.825 9.572 9.04zm-14.271 0c0 2.955 1.914 4.868 4.873 4.868 2.785 0 4.873-1.913 4.873-4.868 0-2.956-2.088-4.869-4.873-4.869-2.959-.174-4.873 1.913-4.873 4.869zm35.33-4.694h-5.395V35.58h-4.525V22.194h-5.222V18.02h15.142v4.173zm14.968 11.997h-6.266l-.696 1.39h-4.873l8.006-17.907h1.392L215 35.58h-4.873l-.696-1.391zm-3.133-7.824l-1.567 3.999h3.133l-1.566-4z" fill="#0E2149"/><path fill-rule="evenodd" clip-rule="evenodd" d="M31.328 2.782h-8.703L19.667 0l-2.785 2.782H12.88V6.78l-6.091 6.085H2.785v3.999L0 19.647l2.785 2.781v8.694L0 33.903l2.785 2.782v4h4.003l6.091 6.084v4h4.003l2.785 2.781 2.784-2.782h8.703l2.784 2.782 2.785-2.782h4.003V46.77l6.091-6.085h4.003v-3.999l2.785-2.782-2.785-2.781v-8.694l2.785-2.781-2.785-2.782V13.04h-4.003l-5.743-6.085V2.782H37.07L34.112 0l-2.784 2.782zm1.044 2.955L34.112 4l1.74 1.738h2.437v2.435l7.832 7.823h2.437v2.435l1.74 1.738-1.74 1.739V32.86l1.74 1.739-1.74 1.739v2.434H46.12l-7.832 7.824v2.434h-2.436l-1.74 1.738-1.741-1.739H21.407l-1.74 1.74-1.74-1.74H15.49v-2.434l-7.832-7.823H5.22v-2.434l-1.74-1.74 1.74-1.738V21.907l-1.74-1.739 1.74-1.738v-2.608h2.437l7.832-7.824v-2.26h2.436l1.74-1.74 1.741 1.74h10.965zM21.407 7.65v1.39c0 .696 0 1.392-.174 2.087 0 .522-.174 1.043-.348 1.391l-1.044 2.608c-.174.348-.522.87-.696 1.217a13.376 13.376 0 01-3.133 3.13c.522.869.87 1.738 1.044 2.608a18.617 18.617 0 004.525-4.52c.174-.349.522-.87.696-1.218l1.045-2.608c.174-.521.174-.87.348-1.39.174-.696.174-1.218.348-1.913h5.743c0 .695.174 1.217.348 1.912l2.61-1.043c-.173-.695-.173-1.39-.173-2.086V7.65H21.407zm14.446 2.782c-.523.521-1.045 1.043-1.567 1.39-.348.349-.87.522-1.218.696-.87.522-1.74.87-2.61 1.043-.523.174-.87.174-1.393.348-.696.174-1.392.174-2.088.174-.697 0-1.393 0-2.263-.174l-1.044 2.608c1.044.174 2.088.348 3.132.348 1.045 0 2.089-.174 3.133-.348.522-.174.87-.174 1.393-.348l2.61-1.043c.348-.174.87-.521 1.218-.695l1.567-1.043L40.9 17.56c-.348.522-.87 1.043-1.044 1.565.87.522 1.74.87 2.61 1.043.348-.521.87-1.043 1.393-1.565l1.044-1.043-7.832-7.824-1.218.696zM9.05 17.212l1.044 1.044c.523.521 1.045 1.043 1.393 1.564.348.348.522.87.696 1.218.522.869.87 1.738 1.044 2.607.174.522.174.87.348 1.391.174.696.174 1.391.174 2.087 0 .695 0 1.39-.174 2.26l2.61 1.043c.175-1.043.349-2.086.349-3.13 0-1.043-.174-2.086-.348-3.129-.174-.522-.174-.87-.348-1.39l-1.044-2.609c-.175-.348-.523-.87-.697-1.217l-1.044-1.565 4.177-4.172 1.567 1.043c.522-.87.87-1.739 1.044-2.608-.522-.348-1.044-.87-1.567-1.391L17.23 9.215l-8.18 7.997zm23.148.174a18.616 18.616 0 004.525 4.52c.348.175.87.522 1.218.696l2.61 1.043c.523.174.871.174 1.393.348.696.174 1.218.174 1.915.348v5.737c-.697 0-1.219.174-1.915.348.174.87.696 1.739 1.044 2.608.697-.174 1.393-.174 2.089-.174h1.392V21.733h-1.392c-.696 0-1.392 0-2.089-.174-.522 0-1.044-.174-1.392-.348-.87-.173-1.74-.695-2.61-1.043-.349-.174-.87-.521-1.219-.695a13.376 13.376 0 01-3.133-3.13c-.696.348-1.566.696-2.436 1.043zm-9.399 2.782v14.083h2.785v-4.173h2.089c2.784 0 4.873-2.26 4.873-4.868 0-2.782-2.263-4.868-4.873-4.868H22.8v-.174zm2.785 2.782h2.089c1.218 0 2.088.87 2.088 2.086 0 1.217-.87 2.087-2.088 2.087h-2.089V22.95zM8.702 21.56H7.31v11.126h1.392c.696 0 1.392 0 2.089.174.522 0 1.044.174 1.392.348l2.61 1.043c.349.174.87.522 1.219.696a13.376 13.376 0 013.133 3.13c.87-.349 1.74-.87 2.61-1.044a18.615 18.615 0 00-4.525-4.52c-.348-.174-.87-.522-1.218-.696l-2.61-1.043c-.523-.174-.871-.174-1.393-.348-.696-.174-1.218-.174-1.915-.348v-5.737c.697 0 1.219-.174 1.915-.348l-1.044-2.608c-.87.174-1.567.174-2.263.174zm28.891 8.866c.174.522.174.87.348 1.391l1.044 2.608c.175.348.523.87.697 1.217l1.044 1.565-4.177 4.172c-.522-.347-1.044-.869-1.566-1.043-.523.87-.87 1.739-1.045 2.608.522.348 1.044.87 1.567 1.391l1.044 1.043 7.832-7.824-1.044-1.043c-.523-.521-1.045-1.043-1.393-1.564-.348-.348-.522-.87-.696-1.218-.522-.869-.87-1.738-1.044-2.607-.174-.522-.174-.87-.348-1.391a18.162 18.162 0 010-4.347l-2.611-1.043c0 1.738 0 3.999.348 6.085zm-5.395 6.607c-.174.348-.522.87-.696 1.217l-1.045 2.608c-.174.348-.174.87-.348 1.217-.174.695-.174 1.217-.348 1.912h-5.743c0-.695-.174-1.217-.348-1.912l-2.61 1.043c.173.696.173 1.391.173 2.087v1.39h11.139v-1.39c0-.696 0-1.391.174-2.087 0-.521.174-1.043.348-1.39l1.044-2.609c.174-.347.522-.869.696-1.217a13.375 13.375 0 013.133-3.13c-.522-.869-.87-1.738-1.044-2.607-1.74 1.565-3.307 3.13-4.525 4.868zm-22.104-.87L9.05 37.208l7.832 7.824 1.044-1.044c.523-.521 1.045-1.043 1.567-1.39.348-.348.87-.522 1.218-.696.87-.522 1.74-.87 2.61-1.043.523-.174.87-.174 1.393-.348.696-.174 1.392-.174 2.263-.174.696 0 1.392 0 2.088.174l1.044-2.608c-1.044-.174-2.088-.348-3.133-.348-1.044 0-2.088.174-3.132.348-.522.174-.87.174-1.393.348l-2.61 1.043c-.348.174-.87.522-1.219.696l-1.566 1.043-4.177-3.999c.348-.522.87-1.043 1.044-1.565-.87-.521-1.74-.87-2.61-1.043-.174.696-.696 1.217-1.219 1.739z" fill="url(#paint0_linear_1017_757)"/></g><defs><linearGradient id="paint0_linear_1017_757" x1="-.295" y1="27.19" x2="54.14" y2="27.19" gradientUnits="userSpaceOnUse"><stop stop-color="#5B1D14"/><stop offset=".149" stop-color="#924E20"/><stop offset=".359" stop-color="#D09F51"/><stop offset=".72" stop-color="#DCBA93"/><stop offset=".859" stop-color="#BE864A"/><stop offset=".968" stop-color="#9F5805"/></linearGradient><clipPath id="clip0_1017_757"><path fill="#fff" d="M0 0h215v54H0z"/></clipPath></defs></svg>